# Blender 4.2.2 LTS
# www.blender.org
mtllib barrel.mtl
o Object_4.002
v 0.000000 -0.638278 0.349642
v 0.000000 -0.638278 0.349642
v 0.000000 -0.638278 0.349642
v 0.000000 0.203846 0.349642
v 0.000000 0.203846 0.349642
v 0.000000 0.203846 0.349642
v 0.000000 0.203846 0.349642
v -0.299830 -0.638278 0.176535
v -0.299830 -0.638278 0.176535
v -0.299830 -0.638278 0.176535
v -0.299830 0.203846 0.176535
v -0.299830 0.203846 0.176535
v -0.299830 0.203846 0.176535
v -0.299830 0.203846 0.176535
v -0.299830 -0.638278 -0.169678
v -0.299830 -0.638278 -0.169678
v -0.299830 -0.638278 -0.169678
v -0.299830 0.203846 -0.169678
v -0.299830 0.203846 -0.169678
v -0.299830 0.203846 -0.169678
v -0.299830 0.203846 -0.169678
v 0.000000 -0.638278 -0.342785
v 0.000000 -0.638278 -0.342785
v 0.000000 -0.638278 -0.342785
v 0.000000 0.203846 -0.342785
v 0.000000 0.203846 -0.342785
v 0.000000 0.203846 -0.342785
v 0.000000 0.203846 -0.342785
v 0.299830 -0.638278 -0.169678
v 0.299830 -0.638278 -0.169678
v 0.299830 -0.638278 -0.169678
v 0.299830 0.203846 -0.169678
v 0.299830 0.203846 -0.169678
v 0.299830 0.203846 -0.169678
v 0.299830 0.203846 -0.169678
v 0.299830 -0.638278 0.176535
v 0.299830 -0.638278 0.176535
v 0.299830 -0.638278 0.176535
v 0.299830 0.203846 0.176535
v 0.299830 0.203846 0.176535
v 0.299830 0.203846 0.176535
v 0.299830 0.203846 0.176535
v -0.246459 0.203846 0.145722
v -0.246459 0.203846 0.145722
v -0.246459 0.203846 0.145722
v -0.246459 0.203846 0.145722
v 0.000000 0.203846 0.288016
v 0.000000 0.203846 0.288016
v 0.000000 0.203846 0.288016
v -0.246459 0.203846 -0.138865
v -0.246459 0.203846 -0.138865
v -0.246459 0.203846 -0.138865
v -0.246459 0.203846 -0.138865
v 0.000000 0.203846 -0.281158
v 0.000000 0.203846 -0.281158
v 0.000000 0.203846 -0.281158
v 0.000000 0.203846 -0.281158
v 0.246459 0.203846 -0.138865
v 0.246459 0.203846 -0.138865
v 0.246459 0.203846 -0.138865
v 0.246459 0.203846 -0.138865
v 0.246459 0.203846 0.145722
v 0.246459 0.203846 0.145722
v 0.246459 0.203846 0.145722
v 0.246459 0.203846 0.145722
v -0.246459 0.106012 0.145722
v -0.246459 0.106012 0.145722
v 0.000000 0.106012 0.288016
v 0.000000 0.106012 0.288016
v -0.246459 0.106012 -0.138865
v -0.246459 0.106012 -0.138865
v 0.000000 0.106012 -0.281158
v 0.000000 0.106012 -0.281158
v 0.246459 0.106012 -0.138865
v 0.246459 0.106012 -0.138865
v 0.246459 0.106012 0.145722
v 0.246459 0.106012 0.145722
v -0.246459 0.106012 0.145722
v 0.000000 0.106012 0.288016
v -0.246459 0.106012 -0.138865
v 0.000000 0.106012 -0.281158
v 0.246459 0.106012 -0.138865
v 0.246459 0.106012 0.145722
vn -0.0000 -0.0000 1.0000
vn -0.8660 -0.0000 0.5000
vn -0.8660 0.0002 0.5000
vn -0.8660 -0.0000 -0.5000
vn -0.0000 -0.0000 -1.0000
vn 0.8660 -0.0000 -0.5000
vn -0.0000 1.0000 -0.0000
vn 0.8660 -0.0000 0.5000
vn 0.8660 -0.0002 0.5000
vn -0.0000 -1.0000 -0.0000
vt 0.189980 0.889182
vt 0.189980 0.603929
vt 0.047353 0.603929
vt 0.047353 0.889182
vt 0.476126 0.887632
vt 0.476126 0.602379
vt 0.333499 0.602379
vt 0.333499 0.887632
vt 0.906257 0.889020
vt 0.906257 0.602206
vt 0.762850 0.602206
vt 0.762850 0.889020
vt 0.763809 0.888776
vt 0.763809 0.603523
vt 0.621182 0.603523
vt 0.621182 0.888776
vt 0.320939 0.272574
vt 0.320939 0.073835
vt 0.296599 0.087888
vt 0.296599 0.258522
vt 0.621182 0.890094
vt 0.621182 0.604840
vt 0.478555 0.604840
vt 0.478556 0.890094
vt 0.333680 0.888310
vt 0.333680 0.603057
vt 0.191053 0.603057
vt 0.191053 0.888310
vt 0.377359 0.455685
vt 0.377359 0.320879
vt 0.340878 0.320879
vt 0.340878 0.455685
vt 0.215370 0.078404
vt 0.215370 0.252975
vt 0.236750 0.240632
vt 0.236750 0.090747
vt 0.272142 0.078404
vt 0.272142 0.252975
vt 0.293522 0.240632
vt 0.293522 0.090747
vt 0.212755 0.082506
vt 0.212755 0.259739
vt 0.234460 0.247207
vt 0.234460 0.095037
vt 0.314901 0.252975
vt 0.314901 0.078404
vt 0.293522 0.090747
vt 0.272142 0.252975
vt 0.272142 0.078404
vt 0.250763 0.090747
vt 0.250763 0.240632
vt 0.413841 0.455685
vt 0.413841 0.320879
vt 0.414734 0.457323
vt 0.414734 0.322516
vt 0.378252 0.322516
vt 0.378252 0.457323
vt 0.341771 0.457323
vt 0.341771 0.322516
vt 0.305290 0.322516
vt 0.305290 0.457323
vt 0.304397 0.320879
vt 0.304397 0.455685
vt 0.881068 1.000000
vt 0.762135 0.794003
vt 0.762135 0.931334
vt 1.000000 0.931334
vt 0.881068 0.725337
vt 1.000000 0.794003
vt 0.550609 0.318715
vt 0.448995 0.142714
vt 0.448996 0.260048
vt 0.652224 0.260048
vt 0.550610 0.084047
vt 0.652224 0.142714
s 1
usemtl metal
f 2/1/1 6/2/1 13/3/2
f 2/1/1 13/3/2 9/4/3
f 10/5/2 14/6/2 20/7/4
f 10/5/2 20/7/4 16/8/4
f 17/9/4 21/10/4 27/11/5
f 17/9/4 27/11/5 23/12/5
f 24/13/5 28/14/5 33/15/6
f 24/13/5 33/15/6 30/16/6
s 0
f 19/17/7 12/18/7 46/19/7
f 19/17/7 46/19/7 53/20/7
s 1
f 29/21/6 32/22/6 40/23/8
f 29/21/6 40/23/8 37/24/8
f 36/25/8 39/26/9 7/27/1
f 36/25/8 7/27/1 3/28/1
f 44/29/6 48/30/5 68/31/5
f 44/29/6 68/31/5 67/32/6
s 0
f 41/33/7 34/34/7 58/35/7
f 41/33/7 58/35/7 62/36/7
f 11/37/7 4/38/7 47/39/7
f 11/37/7 47/39/7 45/40/7
f 25/41/7 18/42/7 52/43/7
f 25/41/7 52/43/7 54/44/7
f 5/45/7 42/46/7 63/47/7
f 5/45/7 63/47/7 47/39/7
f 35/48/7 26/49/7 55/50/7
f 35/48/7 55/50/7 59/51/7
s 1
f 49/52/5 65/53/4 77/30/4
f 49/52/5 77/30/4 69/29/5
f 61/54/2 57/55/1 73/56/1
f 61/54/2 73/56/1 75/57/2
f 50/58/8 43/59/6 66/60/6
f 50/58/8 66/60/6 70/61/8
f 64/32/4 60/31/2 74/62/2
f 64/32/4 74/62/2 76/63/4
f 56/57/1 51/56/8 71/59/8
f 56/57/1 71/59/8 72/58/1
s 0
f 8/64/10 38/65/10 1/66/10
f 38/65/10 8/64/10 15/67/10
f 38/65/10 15/67/10 31/68/10
f 31/68/10 15/67/10 22/69/10
usemtl water
f 83/70/7 78/71/7 79/72/7
f 78/71/7 83/70/7 82/73/7
f 78/71/7 82/73/7 80/74/7
f 80/74/7 82/73/7 81/75/7
