# Blender 4.2.2 LTS
# www.blender.org
mtllib barrier.mtl
o Object_4
v -0.356285 -0.355174 0.994483
v -0.356285 -0.355174 0.994483
v -0.356285 -0.355174 0.994483
v -0.356285 -0.355174 0.994483
v -0.367026 -0.355174 0.984483
v -0.367026 -0.355174 0.984483
v -0.367026 -0.355174 0.984483
v -0.367026 -0.355174 0.984483
v -0.379292 -0.455065 0.994483
v -0.379292 -0.455065 0.994483
v -0.390014 -0.455065 0.984483
v -0.390014 -0.455065 0.984483
v -0.367026 -0.355174 -0.984483
v -0.367026 -0.355174 -0.984483
v -0.367026 -0.355174 -0.984483
v -0.367026 -0.355174 -0.984483
v -0.356285 -0.355174 -0.994483
v -0.356285 -0.355174 -0.994483
v -0.356285 -0.355174 -0.994483
v -0.356285 -0.355174 -0.994483
v -0.390014 -0.455065 -0.984483
v -0.390014 -0.455065 -0.984483
v -0.379292 -0.455065 -0.994483
v -0.379292 -0.455065 -0.994483
v 0.367026 -0.355174 0.984483
v 0.367026 -0.355174 0.984483
v 0.367026 -0.355174 0.984483
v 0.367026 -0.355174 0.984483
v 0.356285 -0.355174 0.994483
v 0.356285 -0.355174 0.994483
v 0.356285 -0.355174 0.994483
v 0.356285 -0.355174 0.994483
v 0.390014 -0.455065 0.984483
v 0.390014 -0.455065 0.984483
v 0.379292 -0.455065 0.994483
v 0.379292 -0.455065 0.994483
v 0.356285 -0.355174 -0.994483
v 0.356285 -0.355174 -0.994483
v 0.356285 -0.355174 -0.994483
v 0.356285 -0.355174 -0.994483
v 0.367026 -0.355174 -0.984483
v 0.367026 -0.355174 -0.984483
v 0.367026 -0.355174 -0.984483
v 0.367026 -0.355174 -0.984483
v 0.379292 -0.455065 -0.994483
v 0.379292 -0.455065 -0.994483
v 0.390014 -0.455065 -0.984483
v 0.390014 -0.455065 -0.984483
v -0.184965 -0.095648 -0.984483
v -0.184965 -0.095648 -0.984483
v -0.184965 -0.095648 -0.984483
v -0.184965 -0.095648 -0.984483
v -0.174230 -0.095648 -0.994483
v -0.174230 -0.095648 -0.994483
v -0.174230 -0.095648 -0.994483
v -0.174230 -0.095648 -0.994483
v 0.174229 -0.095648 -0.994483
v 0.174229 -0.095648 -0.994483
v 0.174229 -0.095648 -0.994483
v 0.174229 -0.095648 -0.994483
v 0.184965 -0.095648 -0.984483
v 0.184965 -0.095648 -0.984483
v 0.184965 -0.095648 -0.984483
v 0.184965 -0.095648 -0.984483
v -0.174230 -0.095648 0.994483
v -0.174230 -0.095648 0.994483
v -0.174230 -0.095648 0.994483
v -0.174230 -0.095648 0.994483
v -0.184965 -0.095648 0.984483
v -0.184965 -0.095648 0.984483
v -0.184965 -0.095648 0.984483
v -0.184965 -0.095648 0.984483
v 0.184965 -0.095648 0.984483
v 0.184965 -0.095648 0.984483
v 0.184965 -0.095648 0.984483
v 0.184965 -0.095648 0.984483
v 0.174229 -0.095648 0.994483
v 0.174229 -0.095648 0.994483
v 0.174229 -0.095648 0.994483
v 0.174229 -0.095648 0.994483
v -0.075387 0.448849 -0.994483
v -0.075387 0.448849 -0.994483
v -0.075387 0.448849 -0.994483
v -0.075387 0.448849 -0.994483
v -0.086071 0.449010 -0.984483
v -0.086071 0.449010 -0.984483
v -0.086071 0.449010 -0.984483
v -0.086071 0.449010 -0.984483
v -0.074285 0.458849 -0.984483
v -0.074285 0.458849 -0.984483
v -0.074285 0.458849 -0.984483
v -0.074285 0.458849 -0.984483
v 0.075387 0.448849 -0.994483
v 0.075387 0.448849 -0.994483
v 0.075387 0.448849 -0.994483
v 0.075387 0.448849 -0.994483
v 0.074285 0.458849 -0.984483
v 0.074285 0.458849 -0.984483
v 0.074285 0.458849 -0.984483
v 0.074285 0.458849 -0.984483
v 0.086071 0.449010 -0.984483
v 0.086071 0.449010 -0.984483
v 0.086071 0.449010 -0.984483
v 0.086071 0.449010 -0.984483
v -0.086071 0.449010 0.984483
v -0.086071 0.449010 0.984483
v -0.086071 0.449010 0.984483
v -0.086071 0.449010 0.984483
v -0.075387 0.448849 0.994483
v -0.075387 0.448849 0.994483
v -0.075387 0.448849 0.994483
v -0.075387 0.448849 0.994483
v -0.074285 0.458849 0.984483
v -0.074285 0.458849 0.984483
v -0.074285 0.458849 0.984483
v -0.074285 0.458849 0.984483
v 0.086071 0.449010 0.984483
v 0.086071 0.449010 0.984483
v 0.086071 0.449010 0.984483
v 0.086071 0.449010 0.984483
v 0.074285 0.458849 0.984483
v 0.074285 0.458849 0.984483
v 0.074285 0.458849 0.984483
v 0.074285 0.458849 0.984483
v 0.075387 0.448849 0.994483
v 0.075387 0.448849 0.994483
v 0.075387 0.448849 0.994483
v 0.075387 0.448849 0.994483
vn -0.5257 0.6298 -0.5718
vn 0.5257 0.6298 -0.5718
vn -0.5257 0.6298 0.5718
vn 0.5257 0.6298 0.5718
vn -0.0000 -0.0000 -1.0000
vn 0.8186 0.5743 -0.0000
vn -0.0000 -0.0000 1.0000
vn -0.9745 0.2243 -0.0000
vn -0.8186 0.5743 -0.0000
vn 0.9745 0.2243 -0.0000
vn -0.9839 0.1786 -0.0000
vn -0.0000 1.0000 -0.0000
vn 0.9839 0.1786 -0.0000
vn -0.6738 0.1551 0.7225
vn -0.6734 0.1551 0.7228
vn 0.6734 0.1550 -0.7228
vn 0.6738 0.1551 -0.7225
vn -0.6738 0.1552 -0.7225
vn -0.6734 0.1550 -0.7228
vn 0.6738 0.1552 0.7225
vn 0.6734 0.1550 0.7228
vn 0.6149 0.4314 -0.6601
vn 0.6148 0.4313 -0.6603
vn 0.6148 0.4313 0.6603
vn 0.6149 0.4314 0.6601
vn -0.6149 0.4314 0.6601
vn -0.6148 0.4313 0.6603
vn -0.6148 0.4313 -0.6603
vn -0.6149 0.4314 -0.6601
vn -0.0000 0.7071 -0.7071
vn -0.6408 0.7677 -0.0000
vn 0.6408 0.7677 -0.0000
vn -0.0000 0.7071 0.7071
vn 0.6772 0.1229 -0.7255
vn 0.6768 0.1229 -0.7258
vn 0.6768 0.1229 0.7258
vn 0.6767 0.1228 0.7259
vn -0.6769 0.1229 -0.7257
vn -0.6768 0.1229 -0.7258
vn -0.6768 0.1229 0.7258
vn -0.6769 0.1229 0.7257
vt 0.541764 0.489733
vt 0.545746 0.489714
vt 0.541286 0.485369
vt 0.977211 0.121901
vt 0.972903 0.121621
vt 0.972986 0.124231
vt 0.545684 0.489222
vt 0.541696 0.489299
vt 0.541216 0.484920
vt 0.125822 0.125086
vt 0.125907 0.122623
vt 0.121599 0.122902
vt 0.463755 0.729116
vt 0.577290 0.726105
vt 0.484227 0.488632
vt 0.410653 0.829150
vt 0.643638 0.829445
vt 0.575897 0.727692
vt 0.464244 0.730303
vt 0.082479 0.445927
vt 0.750954 0.425137
vt 0.751067 0.297814
vt 0.087226 0.301723
vt 0.645087 0.830681
vt 0.409507 0.827636
vt 0.464018 0.729506
vt 0.577315 0.726558
vt 0.750618 0.460163
vt 0.752855 0.425918
vt 0.083783 0.447181
vt 0.083386 0.485370
vt 0.576981 0.727204
vt 0.464433 0.729007
vt 0.483973 0.489262
vt 0.661274 0.863993
vt 0.644819 0.831170
vt 0.410581 0.828821
vt 0.400096 0.863821
vt 0.087433 0.442242
vt 0.752514 0.422039
vt 0.751063 0.297901
vt 0.086172 0.309783
vt 0.751751 0.460222
vt 0.752179 0.426510
vt 0.081683 0.447567
vt 0.082805 0.485327
vt 0.084110 0.308247
vt 0.750730 0.297638
vt 0.747719 0.088005
vt 0.090166 0.100125
vt 0.127234 0.086073
vt 0.971615 0.082783
vt 0.751541 0.295633
vt 0.084824 0.307921
vt 0.087845 0.099561
vt 0.748224 0.088149
vt 0.754059 0.459232
vt 0.756253 0.425810
vt 0.407050 0.828785
vt 0.396404 0.863818
vt 0.664966 0.863996
vt 0.648350 0.831205
vt 0.408611 0.829594
vt 0.400291 0.865217
vt 0.396600 0.865247
vt 0.405049 0.829592
vt 0.460804 0.730384
vt 0.407141 0.829146
vt 0.405956 0.827590
vt 0.460527 0.729597
vt 0.580805 0.726467
vt 0.648638 0.830727
vt 0.647150 0.829450
vt 0.579337 0.727612
vt 0.975897 0.082481
vt 0.971532 0.080172
vt 0.127319 0.083609
vt 0.122952 0.085815
vt 0.480241 0.488510
vt 0.460257 0.729208
vt 0.460965 0.729062
vt 0.479981 0.489198
vt 0.580788 0.726013
vt 0.580448 0.727149
vt 0.644965 0.829722
vt 0.661400 0.863063
s 0
usemtl barrier
f 83/1/1 85/2/1 91/3/1
f 94/4/2 98/5/2 104/6/2
f 105/7/3 111/8/3 115/9/3
f 120/10/4 122/11/4 126/12/4
f 59/13/5 53/14/5 81/1/5
f 59/13/5 81/1/5 95/15/5
f 40/16/5 18/17/5 54/18/5
f 40/16/5 54/18/5 60/19/5
f 26/20/6 42/21/6 62/22/6
f 26/20/6 62/22/6 74/23/6
f 2/24/7 32/25/7 80/26/7
f 2/24/7 80/26/7 66/27/7
f 12/28/8 8/29/8 16/30/8
f 12/28/8 16/30/8 22/31/8
f 65/32/7 79/33/7 127/34/7
f 65/32/7 127/34/7 109/8/7
f 23/35/5 17/36/5 39/37/5
f 23/35/5 39/37/5 46/38/5
f 15/39/9 7/40/9 71/41/9
f 15/39/9 71/41/9 51/42/9
f 47/43/10 41/44/10 25/45/10
f 47/43/10 25/45/10 33/46/10
f 52/47/11 72/48/11 108/49/11
f 52/47/11 108/49/11 88/50/11
f 114/51/12 124/11/12 100/5/12
f 114/51/12 100/5/12 90/52/12
f 73/53/13 61/54/13 101/55/13
f 73/53/13 101/55/13 117/56/13
f 6/29/14 11/28/14 10/57/14
f 6/29/15 10/57/15 4/58/15
f 45/38/16 37/37/16 43/59/16
f 45/38/17 43/59/17 48/60/17
f 20/36/18 24/35/18 21/61/18
f 20/36/19 21/61/19 14/62/19
f 29/63/20 35/64/20 34/65/20
f 29/63/21 34/65/21 27/66/21
f 38/16/22 58/19/22 64/67/22
f 38/16/23 64/67/23 44/68/23
f 78/26/24 30/25/24 28/69/24
f 78/26/25 28/69/25 76/70/25
f 3/24/26 67/27/26 69/71/26
f 3/24/27 69/71/27 5/72/27
f 55/18/28 19/17/28 13/73/28
f 55/18/29 13/73/29 49/74/29
f 89/52/30 99/5/30 96/4/30
f 89/52/30 96/4/30 82/75/30
f 116/51/31 92/52/31 86/76/31
f 116/51/31 86/76/31 106/77/31
f 97/5/32 121/11/32 119/10/32
f 97/5/32 119/10/32 103/6/32
f 123/11/33 113/51/33 110/78/33
f 123/11/33 110/78/33 128/12/33
f 57/13/34 93/15/34 102/79/34
s 1
f 57/13/35 102/79/35 63/80/35
f 125/34/36 77/33/36 75/81/37
f 125/34/36 75/81/37 118/82/36
s 0
f 50/83/38 87/2/38 84/1/38
s 1
f 50/83/39 84/1/39 56/14/39
f 107/7/40 70/84/40 68/32/40
s 0
f 107/7/41 68/32/41 112/8/41
f 36/64/7 31/63/7 1/85/7
f 36/64/7 1/85/7 9/86/7
