# Blender 4.2.2 LTS
# www.blender.org
mtllib garage.mtl
o urbangarage512_urbangarage512_0
v -2.157359 -0.164936 -3.715431
v -2.611717 0.516785 -3.715431
v -1.048608 -0.164936 -3.715431
v 3.958907 -2.374794 -3.715431
v 3.958907 0.117126 -3.667626
v 3.958907 0.117126 -3.715431
v 0.957908 0.516785 -3.715431
v 3.958907 0.117126 -3.715431
v 0.957908 0.117126 -3.715431
v 0.957908 1.423835 -3.715430
v -2.611717 1.625206 -3.715430
v 4.527532 1.625206 -3.715430
v 1.682328 0.117126 -3.667626
v -0.594251 0.117126 -3.667626
v 0.957908 0.117126 -3.715431
v -0.594251 -2.374794 -3.715431
v -1.048609 -2.374794 -3.715431
v -2.611717 -1.171929 -2.115431
v -2.611717 0.516785 -3.715431
v -2.611717 -2.374794 -3.715431
v 1.682328 0.117126 -3.667626
v 3.958907 -2.374794 -3.667627
v 1.682328 -2.374794 -3.667627
v -2.611717 -2.374794 -3.715431
v -2.157359 -2.374794 -3.715431
v -2.157359 -0.164936 -3.715431
v -2.157359 -2.374794 -3.691305
v -2.157359 -2.374794 -3.715431
v 4.527532 -2.374794 -3.715431
v 3.958907 -2.374794 -3.715431
v -1.048609 -2.374794 -3.691305
v -2.157359 -0.164936 -3.691305
v -1.048608 -0.164936 -3.691305
v 4.527532 0.516784 4.284571
v 4.527532 -2.374794 0.284569
v 4.527532 0.516784 0.284570
v -2.611717 -1.171929 -2.115431
v -2.587591 -0.164936 -2.115431
v -2.611717 -0.164936 -2.115431
v -0.594251 0.117126 -3.715431
v 0.964425 1.625206 -3.571484
v 4.527532 1.625206 -3.715430
v -2.611717 1.625206 -3.715430
v 4.527532 1.423834 4.284571
v 0.957908 1.625206 4.284571
v 0.957908 1.423834 4.284571
v -2.611717 -1.171929 1.084570
v -2.587591 -0.164937 1.084570
v -2.611717 -0.164937 1.084570
v -2.611717 -0.164937 1.084570
v -2.587591 -0.164937 2.684570
v -2.611717 -0.164937 2.684570
v -2.611717 -0.164937 2.684570
v -2.587591 -1.171930 2.684570
v -2.611717 -1.171930 2.684570
v -2.611717 -1.171929 -0.515430
v -2.587591 -1.171929 -2.115431
v -2.611717 -1.171929 -2.115431
v -1.048609 -2.374794 -3.691305
v -1.048608 -0.164936 -3.715431
v -1.048609 -2.374794 -3.715431
v -1.048608 -0.164936 -3.715431
v -2.157359 -0.164936 -3.691305
v -2.157359 -0.164936 -3.715431
v -2.611717 -1.171930 2.684570
v -2.587591 -1.171929 1.084570
v -2.611717 -1.171929 1.084570
v -2.611717 1.625206 4.284571
v -2.611717 1.423834 0.284570
v -2.611717 1.423834 4.284571
v -2.611717 -2.374794 0.284569
v -2.611717 -1.171929 -2.115431
v -2.611717 -2.374794 -3.715431
v -2.611717 0.516784 0.284570
v -2.611717 -0.164937 2.684570
v -2.611717 0.516784 4.284571
v -2.611717 0.516784 4.284571
v -2.611717 -1.171930 2.684570
v -2.611717 -2.374795 4.284570
v -2.611717 -0.164936 -2.115431
v -2.587591 -0.164937 -0.515430
v -2.611717 -0.164937 -0.515430
v -2.611717 0.516784 0.284570
v -2.611717 -1.171929 -0.515430
v -2.611717 -2.374794 0.284569
v -2.611717 -0.164937 -0.515430
v -2.587591 -1.171929 -0.515430
v -2.611717 -1.171929 -0.515430
v -2.611717 0.516784 0.284570
v -2.611717 -0.164936 -2.115431
v -2.611717 -0.164937 -0.515430
v -2.587591 -0.164937 -0.515430
v -2.587591 -1.171929 -2.115431
v -2.587591 -1.171929 -0.515430
v -2.587591 -0.164937 2.684570
v -2.587591 -1.171929 1.084570
v -2.587591 -1.171930 2.684570
v -0.594251 0.117126 -3.715431
v -0.594251 -2.374794 -3.667627
v -0.594251 -2.374794 -3.715431
v 4.527532 1.423835 -3.715430
v 4.527532 1.625206 0.284570
v 4.527532 1.423834 0.284570
v -2.611717 -2.374795 4.284570
v 0.957908 0.516784 4.284571
v -2.611717 0.516784 4.284571
v -2.611717 1.625206 4.284571
v -2.611717 1.423834 4.284571
v -2.611717 1.625206 0.284570
v -2.611717 1.423835 -3.715430
v -2.611717 -1.171929 1.084570
v -2.611717 0.516784 0.284570
v -2.611717 -2.374794 0.284569
v 4.527532 1.625206 4.284571
v 4.527532 1.423834 4.284571
v 4.527532 0.516784 0.284570
v 4.527532 -2.374794 -3.715431
v 4.527532 0.516785 -3.715431
v 0.957908 1.625206 4.284571
v 4.389533 1.625206 4.104637
v 0.964425 1.625206 4.104637
v 4.527532 1.625206 0.284570
v 4.389533 1.625206 4.104637
v 4.527532 1.625206 4.284571
v 4.527532 1.625206 0.284570
v 4.389533 1.625206 -3.571484
v 4.389533 1.625206 0.266577
v -2.611717 1.625206 0.284570
v -2.460684 1.625206 -3.571484
v -2.611717 1.625206 -3.715430
v 0.957908 1.625206 4.284571
v -2.460684 1.625206 4.104637
v -2.611717 1.625206 4.284571
v -2.611717 1.625206 0.284570
v -2.460684 1.625206 4.104637
v -2.460684 1.625206 0.266577
v 0.964425 1.625206 4.104637
v 4.389533 1.625206 0.266577
v 0.964425 1.625206 0.266577
v 4.230828 0.331537 4.284571
v 0.957908 0.516784 4.284571
v 1.254612 0.331537 4.284571
v 1.254612 -2.374795 4.244196
v 4.230828 0.331537 4.244196
v 1.254612 0.331537 4.244196
v 4.527532 -2.374795 4.284570
v 4.527532 0.516784 4.284571
v 1.254612 0.331537 4.284571
v 1.254612 -2.374795 4.244196
v 1.254612 -2.374795 4.284570
v 4.230828 0.331537 4.284571
v 4.230828 -2.374795 4.244196
v 4.230828 -2.374795 4.284570
v 1.254612 0.331537 4.284571
v 4.230828 0.331537 4.244196
v 4.230828 0.331537 4.284571
v 1.254612 -2.374795 4.284570
v 1.254612 0.331537 4.244196
v 1.254612 0.331537 4.284571
v -0.594251 0.117126 -3.667626
v 1.682328 -2.374794 -3.667627
v -0.594251 -2.374794 -3.667627
v 4.527532 0.516784 0.284570
v 4.527532 1.423834 4.284571
v 4.527532 0.516784 4.284571
v -2.611717 1.423834 0.284570
v -2.611717 0.516785 -3.715431
v -2.611717 0.516784 0.284570
v 0.957908 0.516784 4.284571
v -2.611717 1.423834 4.284571
v -2.611717 0.516784 4.284571
v 4.527532 0.516785 -3.715431
v 4.527532 1.423834 0.284570
v 4.527532 0.516784 0.284570
v -2.611717 1.423834 4.284571
v -2.611717 0.516784 0.284570
v -2.611717 0.516784 4.284571
v 4.527532 0.516784 4.284571
v 0.957908 1.423834 4.284571
v 0.957908 0.516784 4.284571
v 0.957908 1.423835 -3.715430
v 4.527532 0.516785 -3.715431
v 0.957908 0.516785 -3.715431
v -2.611717 1.423835 -3.715430
v 0.957908 0.516785 -3.715431
v -2.611717 0.516785 -3.715431
v 0.957908 0.516785 -3.715431
v 0.957908 0.117126 -3.715431
v -2.611717 -2.374794 0.284569
v -2.611717 -1.171930 2.684570
v -2.611717 -1.171929 1.084570
v -2.460684 1.625206 4.104637
v 0.964425 1.625206 0.266577
v -2.460684 1.625206 0.266577
v 0.964425 1.625206 0.266577
v 4.389533 1.625206 -3.571484
v 0.964425 1.625206 -3.571484
v -2.460684 1.625206 0.266577
v -2.460684 1.625206 -3.571484
v 3.958907 -2.374794 -3.667627
v 4.527532 0.516785 -3.715431
v 4.527532 1.423835 -3.715430
v -2.611717 1.423835 -3.715430
v -0.594251 0.117126 -3.715431
v 3.958907 0.117126 -3.715431
v 3.958907 0.117126 -3.667626
v -2.611717 -1.171929 -2.115431
v -2.611717 -0.164936 -2.115431
v -2.611717 0.516785 -3.715431
v 3.958907 0.117126 -3.667626
v -2.157359 -0.164936 -3.715431
v -2.157359 -0.164936 -3.691305
v -2.157359 -2.374794 -3.691305
v -1.048609 -2.374794 -3.691305
v -2.157359 -2.374794 -3.691305
v -2.157359 -0.164936 -3.691305
v 4.527532 -2.374795 4.284570
v -2.587591 -1.171929 -2.115431
v -2.460684 1.625206 -3.571484
v 4.389533 1.625206 -3.571484
v 4.527532 1.625206 4.284571
v -2.587591 -1.171929 1.084570
v -2.587591 -0.164937 1.084570
v -2.587591 -0.164937 2.684570
v -2.587591 -1.171929 -0.515430
v -1.048609 -2.374794 -3.691305
v -1.048608 -0.164936 -3.691305
v -1.048608 -0.164936 -3.715431
v -1.048608 -0.164936 -3.691305
v -2.587591 -1.171930 2.684570
v -2.611717 -1.171929 -0.515430
v -2.611717 -0.164937 1.084570
v -2.611717 0.516784 4.284571
v -2.611717 -0.164937 2.684570
v -2.611717 -1.171930 2.684570
v -2.587591 -0.164936 -2.115431
v -2.611717 0.516784 0.284570
v -2.611717 -0.164937 -0.515430
v -2.611717 -1.171929 -0.515430
v -2.587591 -0.164937 -0.515430
v -2.611717 0.516785 -3.715431
v -2.587591 -0.164936 -2.115431
v -2.587591 -0.164937 1.084570
v -0.594251 0.117126 -3.667626
v 4.527532 1.625206 -3.715430
v -2.611717 -2.374795 4.284570
v 1.254612 -2.374795 4.244196
v 0.957908 0.516784 4.284571
v -2.611717 1.625206 -3.715430
v -2.611717 -1.171929 1.084570
v -2.611717 -0.164937 1.084570
v -2.611717 0.516784 0.284570
v 4.527532 -2.374794 0.284569
v 4.527532 1.625206 4.284571
v 4.389533 1.625206 0.266577
v 4.527532 1.625206 -3.715430
v -2.460684 1.625206 0.266577
v 0.964425 1.625206 4.104637
v -2.611717 1.625206 4.284571
v 0.964425 1.625206 4.104637
v 4.389533 1.625206 4.104637
v 4.389533 1.625206 0.266577
v 4.230828 -2.374795 4.244196
v 4.230828 -2.374795 4.284570
v 1.254612 0.331537 4.284571
v 0.957908 0.516784 4.284571
v 1.254612 -2.374795 4.244196
v 4.230828 0.331537 4.244196
v 1.254612 0.331537 4.244196
v 1.254612 -2.374795 4.244196
v 1.682328 0.117126 -3.667626
v 4.527532 1.423834 0.284570
v -2.611717 1.423835 -3.715430
v 0.957908 1.423834 4.284571
v 4.527532 1.423835 -3.715430
v -2.611717 1.423834 0.284570
v 4.527532 1.423834 4.284571
v 4.527532 1.423835 -3.715430
v 0.957908 1.423835 -3.715430
v -2.611717 -2.374795 4.284570
v -2.460684 1.625206 4.104637
v 0.964425 1.625206 0.266577
v 4.389533 1.625206 0.266577
vn -0.0000 -0.0000 -1.0000
vn -1.0000 -0.0000 -0.0000
vn -0.0000 -1.0000 -0.0000
vn 1.0000 -0.0000 -0.0000
vn -0.0000 -0.0000 1.0000
vn -0.0000 1.0000 -0.0000
vn 0.0104 -0.0129 0.9999
vn -0.0093 -0.0149 0.9998
vt 0.283500 0.246877
vt 0.306600 0.212218
vt 0.227131 0.246877
vt 0.300000 0.713295
vt 0.305976 0.401805
vt 0.300000 0.401805
vt 0.306060 0.212218
vt 0.153489 0.232537
vt 0.269230 0.232537
vt 0.224229 0.187608
vt 0.403547 0.167605
vt 0.044911 0.167605
vt -0.036756 0.694024
vt 0.247817 0.694024
vt -0.036756 0.700000
vt 0.204032 0.364855
vt 0.227131 0.364855
vt 0.084642 0.302376
vt 0.002120 0.215279
vt 0.002120 0.364415
vt 0.350594 0.758149
vt 0.510920 0.997573
vt 0.350594 0.997573
vt 0.306600 0.364855
vt 0.283500 0.364855
vt 0.749654 0.811385
vt 0.735893 0.940659
vt 0.749654 0.940659
vt 0.124580 0.364855
vt 0.153489 0.364855
vt 0.636137 0.993066
vt 0.737478 0.757955
vt 0.636137 0.757955
vt 0.376613 0.213328
vt 0.168132 0.364038
vt 0.168132 0.213328
vt 0.749654 0.881752
vt 0.735893 0.881752
vt 0.204032 0.232537
vt 0.205359 0.172207
vt 0.399293 0.158485
vt 0.011424 0.158485
vt 0.041826 0.187608
vt 0.221144 0.167605
vt 0.221144 0.187608
vt 0.749654 0.847061
vt 0.735893 0.940659
vt 0.749654 0.940659
vt 0.735893 0.847061
vt 0.735893 0.811386
vt 0.749654 0.875799
vt 0.405727 0.167605
vt 0.204789 0.187608
vt 0.405727 0.187608
vt 0.205258 0.363577
vt 0.208470 0.215416
vt 0.084687 0.250439
vt 0.002165 0.215279
vt 0.084687 0.302376
vt 0.002165 0.364415
vt 0.205258 0.215416
vt 0.163997 0.302376
vt 0.205258 0.215279
vt 0.084642 0.250439
vt 0.163997 0.250439
vt 0.382854 0.824524
vt 0.507585 0.756659
vt 0.382854 0.756659
vt 0.305976 0.713295
vt 0.003852 0.187608
vt 0.204789 0.167605
vt 0.230177 0.363353
vt 0.044821 0.213204
vt 0.230177 0.213204
vt 0.400462 0.167605
vt 0.400462 0.187608
vt 0.167209 0.302376
vt 0.208470 0.363577
vt 0.378305 0.213328
vt 0.169824 0.364038
vt 0.169824 0.213328
vt 0.343111 0.156818
vt 0.015995 0.173970
vt 0.342490 0.173970
vt 0.384136 0.169795
vt 0.019992 0.156640
vt 0.002841 0.169795
vt 0.002840 0.169213
vt 0.370415 0.156058
vt 0.004556 0.156058
vt 0.002840 0.155738
vt 0.370415 0.170135
vt 0.384136 0.155738
vt 0.003462 0.156694
vt 0.329335 0.173846
vt 0.343733 0.156694
vt 0.384136 0.157356
vt 0.019992 0.171753
vt 0.385851 0.171753
vt 0.190946 0.369875
vt 0.002133 0.597551
vt 0.190946 0.597551
vt 0.045282 0.222823
vt 0.215232 0.213204
vt 0.199826 0.222823
vt 0.003304 0.998581
vt 0.251969 0.757677
vt 0.003304 0.757677
vt 0.029876 0.363353
vt 0.029876 0.213204
vt 0.199826 0.363353
vt 1.300000 0.375004
vt 1.294953 0.713295
vt 1.300000 0.713295
vt 0.016709 -0.300000
vt -0.355318 -0.294953
vt -0.355318 -0.300000
vt 1.294953 0.375004
vt 0.510245 0.758149
vt 0.349918 0.997573
vt 0.510245 0.997574
vt 0.339296 0.112156
vt 0.071254 0.023915
vt 0.071254 0.112156
vt 0.339296 0.023915
vt 0.075515 0.023892
vt 0.337225 0.112583
vt 0.337225 0.023892
vt 0.074933 0.023892
vt 0.336643 0.112583
vt 0.336643 0.023892
vt 0.071274 0.111691
vt 0.337552 0.025243
vt 0.071274 0.025243
vt 0.071274 0.111090
vt 0.337552 0.024642
vt 0.071274 0.024642
vt 0.125120 0.212218
vt 0.088290 0.232537
vt 0.208470 0.364415
vt 0.002133 0.369875
vt 0.002133 0.597551
vt 0.190946 0.597551
vt 0.002133 0.369875
vt 0.190946 0.369875
vt 0.002133 0.597551
vt 0.124580 0.212218
vt 0.044911 0.187608
vt 0.403547 0.187608
vt 0.247817 0.700000
vt -0.321328 0.700000
vt -0.321328 0.694024
vt 0.510920 0.758149
vt 0.735893 0.811385
vt 0.737478 0.993066
vt 0.376613 0.364038
vt 0.011424 0.172207
vt 0.399293 0.172207
vt 0.041826 0.167605
vt 0.749654 0.811386
vt 0.735893 0.875799
vt 0.167209 0.250439
vt 0.507585 0.824524
vt 0.003852 0.167605
vt 0.029414 0.363353
vt 0.378305 0.364038
vt 0.002840 0.156818
vt 0.385851 0.156640
vt 0.384136 0.169213
vt 0.004556 0.170135
vt 0.002840 0.173846
vt 0.002840 0.157356
vt 0.002133 0.369875
vt 0.251969 0.998581
vt 0.045282 0.363353
vt 0.016709 -0.294953
vt 0.349918 0.758149
vt 0.075515 0.112583
vt 0.074933 0.112583
vt 0.337552 0.111691
vt 0.337552 0.111090
s 0
usemtl urbangarage512
f 1/1/1 2/2/1 3/3/1
f 4/4/2 5/5/2 6/6/2
f 7/7/1 8/8/1 9/9/1
f 10/10/1 11/11/1 12/12/1
f 13/13/3 14/14/3 15/15/3
f 3/3/1 16/16/1 17/17/1
f 18/18/2 19/19/2 20/20/2
f 21/21/1 22/22/1 23/23/1
f 24/24/1 1/1/1 25/25/1
f 26/26/4 27/27/4 28/28/4
f 8/8/1 29/29/1 30/30/1
f 31/31/1 32/32/1 33/33/1
f 34/34/4 35/35/4 36/36/4
f 37/27/5 38/37/5 39/38/5
f 40/39/1 3/3/1 2/2/1
f 41/40/6 42/41/6 43/42/6
f 44/43/5 45/44/5 46/45/5
f 47/27/5 48/37/5 49/38/5
f 50/46/3 51/47/3 52/48/3
f 53/37/1 54/27/1 55/28/1
f 56/27/6 57/46/6 58/49/6
f 59/28/2 60/50/2 61/27/2
f 62/51/3 63/47/3 64/48/3
f 65/47/6 66/46/6 67/49/6
f 68/52/2 69/53/2 70/54/2
f 71/55/2 72/18/2 73/20/2
f 74/56/2 75/57/2 76/58/2
f 77/58/2 78/59/2 79/60/2
f 80/46/3 81/47/3 82/48/3
f 83/61/2 84/62/2 85/55/2
f 86/37/1 87/27/1 88/28/1
f 89/63/2 90/64/2 91/65/2
f 92/66/2 93/67/2 94/68/2
f 95/66/2 96/67/2 97/68/2
f 98/6/4 99/69/4 100/4/4
f 101/70/4 102/71/4 103/53/4
f 104/72/5 105/73/5 106/74/5
f 46/45/5 107/75/5 108/76/5
f 109/71/2 110/70/2 69/53/2
f 111/77/2 112/56/2 113/78/2
f 103/53/4 114/52/4 115/54/4
f 116/79/4 117/80/4 118/81/4
f 119/82/6 120/83/6 121/84/6
f 122/85/6 123/86/6 124/87/6
f 125/88/6 126/89/6 127/90/6
f 128/91/6 129/92/6 130/93/6
f 131/94/6 132/95/6 133/96/6
f 134/97/6 135/98/6 136/99/6
f 137/100/6 138/101/6 139/102/6
f 140/103/5 141/104/5 142/105/5
f 143/106/5 144/107/5 145/108/5
f 140/103/5 146/109/5 147/110/5
f 148/105/2 149/111/2 150/111/2
f 151/112/2 152/113/2 153/114/2
f 154/115/3 155/116/3 156/117/3
f 157/114/4 158/118/4 159/112/4
f 160/119/1 161/120/1 162/121/1
f 163/122/4 164/123/4 165/124/4
f 166/124/2 167/125/2 168/123/2
f 169/126/5 170/127/5 171/128/5
f 172/122/4 173/123/4 174/124/4
f 175/124/2 176/125/2 177/123/2
f 178/129/5 179/130/5 180/131/5
f 181/132/1 182/133/1 183/134/1
f 184/135/1 185/136/1 186/137/1
f 40/39/1 187/138/1 188/139/1
f 189/140/2 190/59/2 191/77/2
f 192/141/6 193/102/6 194/142/6
f 195/143/6 196/144/6 197/145/6
f 198/146/6 197/145/6 199/144/6
f 4/4/2 200/69/2 5/5/2
f 7/7/1 201/147/1 8/8/1
f 12/12/1 202/148/1 10/10/1
f 10/10/1 203/149/1 11/11/1
f 14/14/3 204/150/3 15/15/3
f 15/15/3 205/151/3 13/13/3
f 205/151/3 206/152/3 13/13/3
f 3/3/1 40/39/1 16/16/1
f 207/18/2 208/64/2 209/19/2
f 21/21/1 210/153/1 22/22/1
f 24/24/1 2/2/1 1/1/1
f 211/26/4 212/154/4 213/27/4
f 8/8/1 201/147/1 29/29/1
f 214/31/1 215/155/1 216/32/1
f 34/34/4 217/156/4 35/35/4
f 37/27/5 218/28/5 38/37/5
f 43/42/6 219/157/6 41/40/6
f 41/40/6 220/158/6 42/41/6
f 44/43/5 221/159/5 45/44/5
f 47/27/5 222/28/5 48/37/5
f 50/46/3 223/49/3 51/47/3
f 53/37/1 224/38/1 54/27/1
f 56/27/6 225/48/6 57/46/6
f 226/28/2 227/160/2 228/50/2
f 62/51/3 229/161/3 63/47/3
f 65/47/6 230/48/6 66/46/6
f 68/52/2 109/71/2 69/53/2
f 71/55/2 231/62/2 72/18/2
f 74/56/2 232/162/2 75/57/2
f 233/58/2 234/57/2 235/59/2
f 80/46/3 236/49/3 81/47/3
f 237/61/2 238/65/2 239/62/2
f 86/37/1 240/38/1 87/27/1
f 89/63/2 241/19/2 90/64/2
f 92/66/2 242/163/2 93/67/2
f 95/66/2 243/163/2 96/67/2
f 98/6/4 244/5/4 99/69/4
f 101/70/4 245/164/4 102/71/4
f 246/72/7 247/165/7 248/73/7
f 46/45/5 45/44/5 107/75/5
f 109/71/2 249/164/2 110/70/2
f 250/77/2 251/162/2 252/56/2
f 103/53/4 102/71/4 114/52/4
f 116/79/4 253/166/4 117/80/4
f 119/82/6 254/167/6 120/83/6
f 122/85/6 255/168/6 123/86/6
f 125/88/6 256/169/6 126/89/6
f 128/91/6 257/170/6 129/92/6
f 131/94/6 258/171/6 132/95/6
f 134/97/6 259/172/6 135/98/6
f 260/100/6 261/173/6 262/101/6
f 140/103/5 147/110/5 141/104/5
f 143/106/5 263/174/5 144/107/5
f 140/103/5 264/175/5 146/109/5
f 265/105/8 266/104/8 267/111/8
f 151/112/2 268/118/2 152/113/2
f 154/115/3 269/176/3 155/116/3
f 157/114/4 270/113/4 158/118/4
f 160/119/1 271/177/1 161/120/1
f 163/122/4 272/125/4 164/123/4
f 166/124/2 273/122/2 167/125/2
f 169/126/5 274/178/5 170/127/5
f 172/122/4 275/125/4 173/123/4
f 175/124/2 276/122/2 176/125/2
f 178/129/5 277/179/5 179/130/5
f 181/132/1 278/180/1 182/133/1
f 184/135/1 279/181/1 185/136/1
f 40/39/1 2/2/1 187/138/1
f 189/140/2 280/60/2 190/59/2
f 281/141/6 260/100/6 282/102/6
f 195/143/6 283/146/6 196/144/6
f 198/146/6 195/143/6 197/145/6
