{
  "accessors": [
    {
      "bufferView": 2,
      "componentType": 5126,
      "count": 892,
      "max": [
        1.0000975131988525,
        2.5585572719573975,
        1.4060378074645996
      ],
      "min": [
        -1.0000975131988525,
        -2.527280569076538,
        -0.007585967890918255
      ],
      "type": "VEC3"
    },
    {
      "bufferView": 2,
      "byteOffset": 10704,
      "componentType": 5126,
      "count": 892,
      "max": [
        0.9974908232688904,
        0.9911845326423645,
        0.9995732307434082
      ],
      "min": [
        -0.9974908828735352,
        -0.9999994039535522,
        -1.0
      ],
      "type": "VEC3"
    },
    {
      "bufferView": 1,
      "componentType": 5126,
      "count": 892,
      "max": [
        0.931092381477356,
        0.9962158203125
      ],
      "min": [
        0.027255654335021973,
        0.057388387620449066
      ],
      "type": "VEC2"
    },
    {
      "bufferView": 0,
      "componentType": 5125,
      "count": 2754,
      "type": "SCALAR"
    },
    {
      "bufferView": 2,
      "byteOffset": 21408,
      "componentType": 5126,
      "count": 8,
      "max": [
        0.17661958932876587,
        2.563055992126465,
        0.6382485628128052
      ],
      "min": [
        -0.17661958932876587,
        -2.5009005069732666,
        0.35122591257095337
      ],
      "type": "VEC3"
    },
    {
      "bufferView": 2,
      "byteOffset": 21504,
      "componentType": 5126,
      "count": 8,
      "max": [
        0.0,
        0.9997901916503906,
        0.0
      ],
      "min": [
        0.0,
        -1.0,
        -0.020483799278736115
      ],
      "type": "VEC3"
    },
    {
      "bufferView": 1,
      "byteOffset": 7136,
      "componentType": 5126,
      "count": 8,
      "max": [
        0.8247048258781433,
        0.8001335263252258
      ],
      "min": [
        0.5532162189483643,
        0.550001859664917
      ],
      "type": "VEC2"
    },
    {
      "bufferView": 1,
      "byteOffset": 7200,
      "componentType": 5126,
      "count": 8,
      "max": [
        0.8247048258781433,
        0.8001335263252258
      ],
      "min": [
        0.5532162189483643,
        0.550001859664917
      ],
      "type": "VEC2"
    },
    {
      "bufferView": 0,
      "byteOffset": 11016,
      "componentType": 5125,
      "count": 12,
      "type": "SCALAR"
    },
    {
      "bufferView": 2,
      "byteOffset": 21600,
      "componentType": 5126,
      "count": 667,
      "max": [
        0.982700526714325,
        2.603041648864746,
        1.5653892755508423
      ],
      "min": [
        -0.982700526714325,
        -2.8979601860046387,
        0.015679344534873962
      ],
      "type": "VEC3"
    },
    {
      "bufferView": 2,
      "byteOffset": 29604,
      "componentType": 5126,
      "count": 667,
      "max": [
        1.0,
        0.9999895095825195,
        0.9995556473731995
      ],
      "min": [
        -1.0,
        -0.8806495666503906,
        -0.9999979734420776
      ],
      "type": "VEC3"
    },
    {
      "bufferView": 1,
      "byteOffset": 7264,
      "componentType": 5126,
      "count": 667,
      "max": [
        0.809338390827179,
        0.996811032295227
      ],
      "min": [
        0.0031889507081359625,
        0.0031889223027974367
      ],
      "type": "VEC2"
    },
    {
      "bufferView": 0,
      "byteOffset": 11064,
      "componentType": 5125,
      "count": 1974,
      "type": "SCALAR"
    },
    {
      "bufferView": 2,
      "byteOffset": 37608,
      "componentType": 5126,
      "count": 538,
      "max": [
        0.5553553104400635,
        2.4827280044555664,
        1.6386784315109253
      ],
      "min": [
        -0.5553553104400635,
        -3.0065464973449707,
        0.325092077255249
      ],
      "type": "VEC3"
    },
    {
      "bufferView": 2,
      "byteOffset": 44064,
      "componentType": 5126,
      "count": 538,
      "max": [
        1.0,
        1.0,
        1.0
      ],
      "min": [
        -1.0,
        -1.0,
        -1.0
      ],
      "type": "VEC3"
    },
    {
      "bufferView": 1,
      "byteOffset": 12600,
      "componentType": 5126,
      "count": 538,
      "max": [
        0.9356298446655273,
        0.9974511861801147
      ],
      "min": [
        0.0025487542152404785,
        0.0025487556122243404
      ],
      "type": "VEC2"
    },
    {
      "bufferView": 1,
      "byteOffset": 16904,
      "componentType": 5126,
      "count": 538,
      "max": [
        0.9356298446655273,
        0.9974511861801147
      ],
      "min": [
        0.0025487542152404785,
        0.0025487556122243404
      ],
      "type": "VEC2"
    },
    {
      "bufferView": 0,
      "byteOffset": 18960,
      "componentType": 5125,
      "count": 660,
      "type": "SCALAR"
    }
  ],
  "asset": {
    "extras": {
      "author": "Wardster (https://sketchfab.com/WardsterSAW)",
      "license": "CC-BY-4.0 (http://creativecommons.org/licenses/by/4.0/)",
      "source": "https://sketchfab.com/3d-models/low-poly-cars-monte-carlo-police-cruiser-0258b09b99a64eca8cd4279943de6dba",
      "title": "low poly cars - Monte Carlo + Police cruiser"
    },
    "generator": "Sketchfab-15.87.0",
    "version": "2.0"
  },
  "bufferViews": [
    {
      "buffer": 0,
      "byteLength": 21600,
      "name": "floatBufferViews",
      "target": 34963
    },
    {
      "buffer": 0,
      "byteLength": 21208,
      "byteOffset": 21600,
      "byteStride": 8,
      "name": "floatBufferViews",
      "target": 34962
    },
    {
      "buffer": 0,
      "byteLength": 50520,
      "byteOffset": 42808,
      "byteStride": 12,
      "name": "floatBufferViews",
      "target": 34962
    }
  ],
  "buffers": [
    {
      "byteLength": 93328,
      "uri": "scene.bin"
    }
  ],
  "images": [
    {
      "uri": "textures/montecarlo70_baseColor.jpeg"
    },
    {
      "uri": "textures/Materiais.003_baseColor.png"
    },
    {
      "uri": "textures/Materiais.001_baseColor.jpeg"
    }
  ],
  "materials": [
    {
      "doubleSided": true,
      "name": "montecarlo70",
      "pbrMetallicRoughness": {
        "baseColorTexture": {
          "index": 0
        },
        "metallicFactor": 0.0,
        "roughnessFactor": 0.8211145618000169
      }
    },
    {
      "doubleSided": true,
      "name": "Materiais.003",
      "pbrMetallicRoughness": {
        "baseColorTexture": {
          "index": 1
        },
        "metallicFactor": 0.0,
        "roughnessFactor": 0.8211145618000169
      }
    },
    {
      "doubleSided": true,
      "name": "Materiais.001",
      "pbrMetallicRoughness": {
        "baseColorTexture": {
          "index": 2
        },
        "metallicFactor": 0.0,
        "roughnessFactor": 0.8211145618000169
      }
    }
  ],
  "meshes": [
    {
      "name": "montecarlo70_LOD0_montecarlo70_0",
      "primitives": [
        {
          "attributes": {
            "NORMAL": 1,
            "POSITION": 0,
            "TEXCOORD_0": 2
          },
          "indices": 3,
          "material": 0,
          "mode": 4
        }
      ]
    },
    {
      "name": "montecarlo70_Placa_Materiais.003_0",
      "primitives": [
        {
          "attributes": {
            "NORMAL": 5,
            "POSITION": 4,
            "TEXCOORD_0": 6,
            "TEXCOORD_1": 7
          },
          "indices": 8,
          "material": 1,
          "mode": 4
        }
      ]
    },
    {
      "name": "copCar_LOD0_Materiais.001_0",
      "primitives": [
        {
          "attributes": {
            "NORMAL": 10,
            "POSITION": 9,
            "TEXCOORD_0": 11
          },
          "indices": 12,
          "material": 2,
          "mode": 4
        }
      ]
    },
    {
      "name": "copCarDetail_LOD0_Materiais.003_0",
      "primitives": [
        {
          "attributes": {
            "NORMAL": 14,
            "POSITION": 13,
            "TEXCOORD_0": 15,
            "TEXCOORD_1": 16
          },
          "indices": 17,
          "material": 1,
          "mode": 4
        }
      ]
    }
  ],
  "nodes": [
    {
      "children": [
        1
      ],
      "matrix": [
        1.0,
        0.0,
        0.0,
        0.0,
        0.0,
        2.220446049250313e-16,
        -1.0,
        0.0,
        0.0,
        1.0,
        2.220446049250313e-16,
        0.0,
        0.0,
        0.0,
        0.0,
        1.0
      ],
      "name": "Sketchfab_model"
    },
    {
      "children": [
        2
      ],
      "matrix": [
        0.009999999776482582,
        0.0,
        0.0,
        0.0,
        0.0,
        0.0,
        0.009999999776482582,
        0.0,
        0.0,
        -0.009999999776482582,
        0.0,
        0.0,
        0.0,
        0.0,
        0.0,
        1.0
      ],
      "name": "a977bc6eedba409d8b0729d449bc5511.fbx"
    },
    {
      "children": [
        3,
        5,
        7,
        9
      ],
      "name": "RootNode"
    },
    {
      "children": [
        4
      ],
      "matrix": [
        100.0,
        0.0,
        0.0,
        0.0,
        -0.0,
        -1.629206793918314e-05,
        -99.99999999999868,
        0.0,
        0.0,
        99.99999999999868,
        -1.629206793918314e-05,
        0.0,
        -307.6532287597656,
        0.0,
        0.0,
        1.0
      ],
      "name": "montecarlo70_LOD0"
    },
    {
      "mesh": 0,
      "name": "montecarlo70_LOD0_montecarlo70_0"
    },
    {
      "children": [
        6
      ],
      "matrix": [
        100.0,
        0.0,
        0.0,
        0.0,
        -0.0,
        -1.629206793918314e-05,
        -99.99999999999868,
        0.0,
        0.0,
        99.99999999999868,
        -1.629206793918314e-05,
        0.0,
        -307.6532287597656,
        0.0,
        0.0,
        1.0
      ],
      "name": "montecarlo70_Placa"
    },
    {
      "mesh": 1,
      "name": "montecarlo70_Placa_Materiais.003_0"
    },
    {
      "children": [
        8
      ],
      "matrix": [
        100.0,
        0.0,
        0.0,
        0.0,
        0.0,
        -1.629206793918314e-05,
        -99.99999999999868,
        0.0,
        0.0,
        99.99999999999868,
        -1.629206793918314e-05,
        0.0,
        0.0,
        0.0,
        0.0,
        1.0
      ],
      "name": "copCar_LOD0"
    },
    {
      "mesh": 2,
      "name": "copCar_LOD0_Materiais.001_0"
    },
    {
      "children": [
        10
      ],
      "matrix": [
        100.0,
        0.0,
        0.0,
        0.0,
        0.0,
        -1.629206793918314e-05,
        -99.99999999999868,
        0.0,
        0.0,
        99.99999999999868,
        -1.629206793918314e-05,
        0.0,
        0.0,
        0.0,
        0.0,
        1.0
      ],
      "name": "copCarDetail_LOD0"
    },
    {
      "mesh": 3,
      "name": "copCarDetail_LOD0_Materiais.003_0"
    }
  ],
  "samplers": [
    {
      "magFilter": 9729,
      "minFilter": 9987,
      "wrapS": 10497,
      "wrapT": 10497
    }
  ],
  "scene": 0,
  "scenes": [
    {
      "name": "Sketchfab_Scene",
      "nodes": [
        0
      ]
    }
  ],
  "textures": [
    {
      "sampler": 0,
      "source": 0
    },
    {
      "sampler": 0,
      "source": 1
    },
    {
      "sampler": 0,
      "source": 2
    }
  ]
}
